--40002LOG 11:56:38:193048000 Waiting for file /home/seluser/videos/vid_chrome_or_firefox_40002* to be created...
Won't start video recording due to VIDEO env var false
ffmpeg version 2.8.17-0ubuntu0.1 Copyright (c) 2000-2020 the FFmpeg developers
  built with gcc 5.4.0 (Ubuntu 5.4.0-6ubuntu1~16.04.12) 20160609
  configuration: --prefix=/usr --extra-version=0ubuntu0.1 --build-suffix=-ffmpeg --toolchain=hardened --libdir=/usr/lib/x86_64-linux-gnu --incdir=/usr/include/x86_64-linux-gnu --cc=cc --cxx=g++ --enable-gpl --enable-shared --disable-stripping --disable-decoder=libopenjpeg --disable-decoder=libschroedinger --enable-avresample --enable-avisynth --enable-gnutls --enable-ladspa --enable-libass --enable-libbluray --enable-libbs2b --enable-libcaca --enable-libcdio --enable-libflite --enable-libfontconfig --enable-libfreetype --enable-libfribidi --enable-libgme --enable-libgsm --enable-libmodplug --enable-libmp3lame --enable-libopenjpeg --enable-libopus --enable-libpulse --enable-librtmp --enable-libschroedinger --enable-libshine --enable-libsnappy --enable-libsoxr --enable-libspeex --enable-libssh --enable-libtheora --enable-libtwolame --enable-libvorbis --enable-libvpx --enable-libwavpack --enable-libwebp --enable-libx265 --enable-libxvid --enable-libzvbi --enable-openal --enable-opengl --enable-x11grab --enable-libdc1394 --enable-libiec61883 --enable-libzmq --enable-frei0r --enable-libx264 --enable-libopencv
  libavutil      54. 31.100 / 54. 31.100
  libavcodec     56. 60.100 / 56. 60.100
  libavformat    56. 40.101 / 56. 40.101
  libavdevice    56.  4.100 / 56.  4.100
  libavfilter     5. 40.101 /  5. 40.101
  libavresample   2.  1.  0 /  2.  1.  0
  libswscale      3.  1.101 /  3.  1.101
  libswresample   1.  2.101 /  1.  2.101
  libpostproc    53.  3.100 / 53.  3.100
Input #0, x11grab, from ':60.0':
  Duration: N/A, start: 1603878998.489039, bitrate: N/A
    Stream #0:0: Video: rawvideo (BGR[0] / 0x524742), bgr0, 1366x768, 10 fps, 10 tbr, 1000k tbn, 10 tbc
[libx264 @ 0xea2320] using cpu capabilities: MMX2 SSE2Fast SSSE3 SSE4.2 AVX FMA3 AVX2 LZCNT BMI2
[libx264 @ 0xea2320] profile Constrained Baseline, level 3.2
[libx264 @ 0xea2320] 264 - core 148 r2643 5c65704 - H.264/MPEG-4 AVC codec - Copyleft 2003-2015 - http://www.videolan.org/x264.html - options: cabac=0 ref=1 deblock=0:0:0 analyse=0:0 me=dia subme=0 psy=1 psy_rd=1.00:0.00 mixed_ref=0 me_range=16 chroma_me=1 trellis=0 8x8dct=0 cqm=0 deadzone=21,11 fast_pskip=1 chroma_qp_offset=0 threads=3 lookahead_threads=1 sliced_threads=0 nr=0 decimate=1 interlaced=0 bluray_compat=0 constrained_intra=0 bframes=0 weightp=0 keyint=250 keyint_min=10 scenecut=0 intra_refresh=0 rc=crf mbtree=0 crf=23.0 qcomp=0.60 qpmin=0 qpmax=69 qpstep=4 ip_ratio=1.40 aq=0
Output #0, matroska, to '/home/seluser/videos/vid_chrome_or_firefox_40002.mkv':
  Metadata:
    encoder         : Lavf56.40.101
    Stream #0:0: Video: h264 (libx264) (H264 / 0x34363248), yuv420p, 1366x768, q=-1--1, 10 fps, 1k tbn, 10 tbc
    Metadata:
      encoder         : Lavc56.60.100 libx264
Stream mapping:
  Stream #0:0 -> #0:0 (rawvideo (native) -> h264 (libx264))
Press [q] to stop, [?] for help
[swscaler @ 0xeadca0] Warning: data is not aligned! This can lead to a speedloss
frame=    3 fps=0.0 q=0.0 size=       1kB time=00:00:00.00 bitrate=N/A    
frame=   11 fps= 11 q=9.0 size=      44kB time=00:00:00.70 bitrate= 520.2kbits/s    
frame=   22 fps= 14 q=9.0 size=      46kB time=00:00:01.80 bitrate= 210.8kbits/s    
frame=   27 fps= 13 q=9.0 size=      46kB time=00:00:02.30 bitrate= 165.3kbits/s    
frame=   33 fps= 12 q=9.0 size=      47kB time=00:00:02.90 bitrate= 131.8kbits/s    
frame=   39 fps= 12 q=9.0 size=      47kB time=00:00:03.50 bitrate= 109.5kbits/s    
frame=   45 fps= 11 q=9.0 size=      47kB time=00:00:04.10 bitrate=  93.9kbits/s    
frame=   51 fps= 11 q=9.0 size=      47kB time=00:00:04.70 bitrate=  82.3kbits/s    
frame=   56 fps= 11 q=9.0 size=      47kB time=00:00:05.20 bitrate=  74.6kbits/s    
frame=   62 fps= 11 q=9.0 size=      48kB time=00:00:05.80 bitrate=  67.2kbits/s    
frame=   67 fps= 11 q=9.0 size=      48kB time=00:00:06.30 bitrate=  62.0kbits/s    
frame=   73 fps= 11 q=9.0 size=      48kB time=00:00:06.90 bitrate=  56.9kbits/s    
frame=   79 fps= 11 q=9.0 size=      48kB time=00:00:07.50 bitrate=  52.5kbits/s    
frame=   85 fps= 11 q=9.0 size=      48kB time=00:00:08.10 bitrate=  48.8kbits/s    
frame=   90 fps= 11 q=9.0 size=      48kB time=00:00:08.60 bitrate=  46.1kbits/s    
frame=   96 fps= 10 q=9.0 size=      49kB time=00:00:09.20 bitrate=  43.3kbits/s    
frame=  102 fps= 11 q=9.0 size=      49kB time=00:00:09.80 bitrate=  40.8kbits/s    
frame=  109 fps= 11 q=9.0 size=      49kB time=00:00:10.50 bitrate=  38.2kbits/s    
frame=  115 fps= 11 q=9.0 size=      49kB time=00:00:11.10 bitrate=  36.3kbits/s    
frame=  120 fps= 11 q=9.0 size=      49kB time=00:00:11.60 bitrate=  34.8kbits/s    
frame=  125 fps= 10 q=9.0 size=      50kB time=00:00:12.10 bitrate=  33.6kbits/s    
frame=  131 fps= 11 q=9.0 size=      50kB time=00:00:12.70 bitrate=  32.2kbits/s    
frame=  137 fps= 11 q=9.0 size=      50kB time=00:00:13.30 bitrate=  30.8kbits/s    
frame=  142 fps= 10 q=9.0 size=      50kB time=00:00:13.80 bitrate=  29.8kbits/s    
frame=  145 fps= 10 q=9.0 size=      50kB time=00:00:14.10 bitrate=  29.2kbits/s    
frame=  149 fps= 10 q=9.0 size=      50kB time=00:00:14.50 bitrate=  28.5kbits/s    
frame=  155 fps= 10 q=9.0 size=      51kB time=00:00:15.10 bitrate=  27.4kbits/s    
frame=  159 fps= 10 q=9.0 size=      51kB time=00:00:15.50 bitrate=  26.8kbits/s    
frame=  163 fps= 10 q=9.0 size=      51kB time=00:00:15.90 bitrate=  26.2kbits/s    
frame=  166 fps=9.9 q=9.0 size=      51kB time=00:00:16.20 bitrate=  25.7kbits/s    
frame=  170 fps=9.8 q=9.0 size=      51kB time=00:00:16.60 bitrate=  25.2kbits/s    
frame=  175 fps=9.7 q=9.0 size=      51kB time=00:00:17.10 bitrate=  24.6kbits/s    
frame=  178 fps=9.4 q=9.0 size=      51kB time=00:00:17.40 bitrate=  24.2kbits/s    
frame=  179 fps=9.2 q=9.0 size=      51kB time=00:00:17.50 bitrate=  24.1kbits/s    
frame=  183 fps=9.2 q=9.0 size=      52kB time=00:00:17.90 bitrate=  23.7kbits/s    
frame=  186 fps=9.1 q=9.0 size=      52kB time=00:00:18.20 bitrate=  23.3kbits/s    
frame=  190 fps=9.1 q=9.0 size=      52kB time=00:00:18.60 bitrate=  22.9kbits/s    
frame=  194 fps=9.0 q=9.0 size=      52kB time=00:00:19.00 bitrate=  22.4kbits/s    
frame=  196 fps=8.7 q=9.0 size=      52kB time=00:00:19.20 bitrate=  22.3kbits/s    
frame=  199 fps=8.7 q=9.0 size=      52kB time=00:00:19.50 bitrate=  22.0kbits/s    
frame=  202 fps=8.6 q=9.0 size=      53kB time=00:00:19.80 bitrate=  21.8kbits/s    
frame=  206 fps=8.6 q=9.0 size=      53kB time=00:00:20.20 bitrate=  21.4kbits/s    
frame=  210 fps=8.5 q=9.0 size=      53kB time=00:00:20.60 bitrate=  21.0kbits/s    
frame=  212 fps=8.4 q=9.0 size=      53kB time=00:00:20.80 bitrate=  20.9kbits/s    
frame=  215 fps=8.3 q=9.0 size=      53kB time=00:00:21.10 bitrate=  20.6kbits/s    
frame=  219 fps=8.2 q=9.0 size=      53kB time=00:00:21.50 bitrate=  20.3kbits/s    
frame=  222 fps=8.1 q=9.0 size=      53kB time=00:00:21.80 bitrate=  20.1kbits/s    
frame=  225 fps=8.0 q=9.0 size=      54kB time=00:00:22.10 bitrate=  19.8kbits/s    
frame=  228 fps=8.0 q=9.0 size=      54kB time=00:00:22.40 bitrate=  19.6kbits/s    
frame=  230 fps=7.9 q=9.0 size=      54kB time=00:00:22.60 bitrate=  19.5kbits/s    
frame=  234 fps=7.8 q=9.0 size=      54kB time=00:00:23.00 bitrate=  19.2kbits/s    
frame=  235 fps=7.7 q=9.0 size=      54kB time=00:00:23.10 bitrate=  19.1kbits/s    
frame=  237 fps=7.6 q=9.0 size=      54kB time=00:00:23.30 bitrate=  19.0kbits/s    
frame=  239 fps=7.6 q=9.0 size=      54kB time=00:00:23.50 bitrate=  18.9kbits/s    
frame=  241 fps=7.4 q=9.0 size=      54kB time=00:00:23.70 bitrate=  18.7kbits/s    
frame=  244 fps=7.4 q=9.0 size=      54kB time=00:00:24.00 bitrate=  18.6kbits/s    
frame=  246 fps=7.4 q=9.0 size=      55kB time=00:00:24.20 bitrate=  18.5kbits/s    
frame=  252 fps=7.4 q=9.0 size=      55kB time=00:00:24.80 bitrate=  18.1kbits/s    
frame=  256 fps=7.4 q=12.0 size=      96kB time=00:00:25.20 bitrate=  31.1kbits/s    
frame=  260 fps=7.4 q=9.0 size=      96kB time=00:00:25.60 bitrate=  30.6kbits/s    
frame=  262 fps=7.3 q=9.0 size=      96kB time=00:00:25.80 bitrate=  30.4kbits/s    
frame=  265 fps=7.3 q=9.0 size=      96kB time=00:00:26.10 bitrate=  30.1kbits/s    
frame=  270 fps=7.3 q=9.0 size=      96kB time=00:00:26.60 bitrate=  29.6kbits/s    
frame=  274 fps=7.3 q=9.0 size=      96kB time=00:00:27.00 bitrate=  29.2kbits/s    
frame=  276 fps=7.2 q=9.0 size=      96kB time=00:00:27.20 bitrate=  29.0kbits/s    
frame=  278 fps=7.2 q=9.0 size=      96kB time=00:00:27.40 bitrate=  28.8kbits/s    
frame=  280 fps=7.0 q=9.0 size=      96kB time=00:00:27.60 bitrate=  28.6kbits/s    
frame=  282 fps=6.9 q=9.0 size=      97kB time=00:00:27.80 bitrate=  28.4kbits/s    
frame=  285 fps=6.9 q=9.0 size=      97kB time=00:00:28.10 bitrate=  28.2kbits/s    
frame=  290 fps=6.9 q=9.0 size=      98kB time=00:00:28.60 bitrate=  28.2kbits/s    
frame=  293 fps=6.9 q=9.0 size=      99kB time=00:00:28.90 bitrate=  27.9kbits/s    
frame=  296 fps=6.9 q=9.0 size=      99kB time=00:00:29.20 bitrate=  27.7kbits/s    
frame=  298 fps=6.8 q=9.0 size=      99kB time=00:00:29.40 bitrate=  27.5kbits/s    
frame=  301 fps=6.8 q=9.0 size=      99kB time=00:00:29.70 bitrate=  27.3kbits/s    
frame=  308 fps=6.9 q=9.0 size=      99kB time=00:00:30.40 bitrate=  26.7kbits/s    
frame=  312 fps=6.8 q=9.0 size=      99kB time=00:00:30.80 bitrate=  26.4kbits/s    
frame=  317 fps=6.9 q=9.0 size=      99kB time=00:00:31.30 bitrate=  26.0kbits/s    
frame=  321 fps=6.9 q=9.0 size=     100kB time=00:00:31.70 bitrate=  25.7kbits/s    
frame=  324 fps=6.8 q=9.0 size=     100kB time=00:00:32.00 bitrate=  25.5kbits/s    
frame=  327 fps=6.8 q=9.0 size=     100kB time=00:00:32.30 bitrate=  25.3kbits/s    
frame=  329 fps=6.8 q=9.0 size=     100kB time=00:00:32.50 bitrate=  25.2kbits/s    
frame=  331 fps=6.7 q=9.0 size=     100kB time=00:00:32.70 bitrate=  25.0kbits/s    
frame=  333 fps=6.7 q=9.0 size=     100kB time=00:00:32.90 bitrate=  24.9kbits/s    
frame=  335 fps=6.6 q=9.0 size=     100kB time=00:00:33.10 bitrate=  24.8kbits/s    
frame=  339 fps=6.6 q=9.0 size=     102kB time=00:00:33.50 bitrate=  24.9kbits/s    
frame=  343 fps=6.6 q=9.0 size=     102kB time=00:00:33.90 bitrate=  24.6kbits/s    
frame=  345 fps=6.6 q=9.0 size=     102kB time=00:00:34.10 bitrate=  24.5kbits/s    
frame=  347 fps=6.5 q=9.0 size=     102kB time=00:00:34.30 bitrate=  24.4kbits/s    
frame=  350 fps=6.5 q=9.0 size=     102kB time=00:00:34.60 bitrate=  24.2kbits/s    
frame=  352 fps=6.4 q=9.0 size=     104kB time=00:00:34.80 bitrate=  24.5kbits/s    
frame=  354 fps=6.4 q=9.0 size=     104kB time=00:00:35.00 bitrate=  24.3kbits/s    
frame=  356 fps=6.3 q=9.0 size=     104kB time=00:00:35.20 bitrate=  24.2kbits/s    
frame=  358 fps=6.3 q=9.0 size=     104kB time=00:00:35.40 bitrate=  24.1kbits/s    
frame=  359 fps=6.2 q=9.0 size=     104kB time=00:00:35.50 bitrate=  24.1kbits/s    
frame=  361 fps=6.2 q=9.0 size=     104kB time=00:00:35.70 bitrate=  24.0kbits/s    
frame=  362 fps=6.1 q=9.0 size=     104kB time=00:00:35.80 bitrate=  23.9kbits/s    
frame=  363 fps=6.1 q=9.0 size=     105kB time=00:00:35.90 bitrate=  23.9kbits/s    
frame=  364 fps=6.0 q=9.0 size=     105kB time=00:00:36.00 bitrate=  23.8kbits/s    
frame=  367 fps=6.0 q=9.0 size=     105kB time=00:00:36.30 bitrate=  23.7kbits/s    
frame=  368 fps=6.0 q=9.0 size=     105kB time=00:00:36.40 bitrate=  23.6kbits/s    
frame=  369 fps=5.9 q=9.0 size=     105kB time=00:00:36.50 bitrate=  23.6kbits/s    
frame=  370 fps=5.9 q=9.0 size=     105kB time=00:00:36.60 bitrate=  23.5kbits/s    
frame=  371 fps=5.8 q=9.0 size=     105kB time=00:00:36.70 bitrate=  23.4kbits/s    
frame=  372 fps=5.8 q=9.0 size=     105kB time=00:00:36.80 bitrate=  23.4kbits/s    
frame=  373 fps=5.7 q=9.0 size=     105kB time=00:00:36.90 bitrate=  23.4kbits/s    
frame=  374 fps=5.6 q=9.0 size=     105kB time=00:00:37.00 bitrate=  23.3kbits/s    
frame=  375 fps=5.6 q=9.0 size=     105kB time=00:00:37.10 bitrate=  23.3kbits/s    
frame=  376 fps=5.5 q=9.0 size=     106kB time=00:00:37.20 bitrate=  23.2kbits/s    
frame=  377 fps=5.4 q=9.0 size=     106kB time=00:00:37.30 bitrate=  23.2kbits/s    
frame=  378 fps=5.4 q=9.0 size=     106kB time=00:00:37.40 bitrate=  23.2kbits/s    
frame=  379 fps=5.3 q=9.0 size=     106kB time=00:00:37.50 bitrate=  23.1kbits/s    
frame=  380 fps=5.3 q=9.0 size=     106kB time=00:00:37.60 bitrate=  23.1kbits/s    
frame=  381 fps=5.2 q=9.0 size=     106kB time=00:00:37.70 bitrate=  23.0kbits/s    
frame=  382 fps=5.2 q=9.0 size=     106kB time=00:00:37.80 bitrate=  23.0kbits/s    
frame=  384 fps=5.2 q=9.0 size=     106kB time=00:00:38.00 bitrate=  22.9kbits/s    
frame=  386 fps=5.1 q=9.0 size=     107kB time=00:00:38.20 bitrate=  22.9kbits/s    
frame=  387 fps=5.0 q=9.0 size=     107kB time=00:00:38.30 bitrate=  22.8kbits/s    
frame=  388 fps=5.0 q=9.0 size=     107kB time=00:00:38.40 bitrate=  22.7kbits/s    
frame=  389 fps=4.9 q=9.0 size=     107kB time=00:00:38.50 bitrate=  22.7kbits/s    
frame=  391 fps=4.9 q=9.0 size=     107kB time=00:00:38.70 bitrate=  22.6kbits/s    
frame=  392 fps=4.8 q=9.0 size=     107kB time=00:00:38.80 bitrate=  22.6kbits/s    
frame=  393 fps=4.8 q=9.0 size=     107kB time=00:00:38.90 bitrate=  22.6kbits/s    
frame=  394 fps=4.7 q=9.0 size=     107kB time=00:00:39.00 bitrate=  22.5kbits/s    
frame=  395 fps=4.7 q=9.0 size=     107kB time=00:00:39.10 bitrate=  22.5kbits/s    
frame=  396 fps=4.6 q=9.0 size=     107kB time=00:00:39.20 bitrate=  22.4kbits/s    
frame=  397 fps=4.5 q=9.0 size=     108kB time=00:00:39.30 bitrate=  22.4kbits/s    
frame=  398 fps=4.5 q=9.0 size=     108kB time=00:00:39.40 bitrate=  22.4kbits/s    
frame=  399 fps=4.5 q=9.0 size=     108kB time=00:00:39.50 bitrate=  22.4kbits/s    
frame=  401 fps=4.4 q=9.0 size=     108kB time=00:00:39.70 bitrate=  22.3kbits/s    
frame=  402 fps=4.4 q=9.0 size=     108kB time=00:00:39.80 bitrate=  22.3kbits/s    
frame=  403 fps=4.4 q=9.0 size=     108kB time=00:00:39.90 bitrate=  22.2kbits/s    
frame=  405 fps=4.4 q=9.0 size=     108kB time=00:00:40.10 bitrate=  22.2kbits/s    
frame=  407 fps=4.4 q=9.0 size=     110kB time=00:00:40.30 bitrate=  22.4kbits/s    
frame=  409 fps=4.3 q=9.0 size=     110kB time=00:00:40.50 bitrate=  22.3kbits/s    
frame=  411 fps=4.3 q=9.0 size=     110kB time=00:00:40.70 bitrate=  22.2kbits/s    
frame=  412 fps=4.3 q=9.0 size=     110kB time=00:00:40.80 bitrate=  22.2kbits/s    
frame=  414 fps=4.3 q=9.0 size=     111kB time=00:00:41.00 bitrate=  22.1kbits/s    
frame=  417 fps=4.3 q=9.0 size=     111kB time=00:00:41.30 bitrate=  22.0kbits/s    
frame=  418 fps=4.2 q=9.0 size=     111kB time=00:00:41.40 bitrate=  21.9kbits/s    
frame=  421 fps=4.2 q=9.0 size=     111kB time=00:00:41.70 bitrate=  21.8kbits/s    
frame=  423 fps=4.1 q=9.0 size=     113kB time=00:00:41.90 bitrate=  22.0kbits/s    
frame=  425 fps=4.1 q=9.0 size=     113kB time=00:00:42.10 bitrate=  21.9kbits/s    
frame=  427 fps=4.1 q=9.0 size=     113kB time=00:00:42.30 bitrate=  21.9kbits/s    
frame=  430 fps=4.1 q=9.0 size=     113kB time=00:00:42.60 bitrate=  21.8kbits/s    
frame=  432 fps=4.1 q=9.0 size=     113kB time=00:00:42.80 bitrate=  21.7kbits/s    
frame=  434 fps=4.0 q=9.0 size=     113kB time=00:00:43.00 bitrate=  21.6kbits/s    
frame=  435 fps=4.0 q=9.0 size=     113kB time=00:00:43.10 bitrate=  21.6kbits/s    
frame=  436 fps=4.0 q=9.0 size=     114kB time=00:00:43.20 bitrate=  21.5kbits/s    
frame=  437 fps=4.0 q=9.0 size=     114kB time=00:00:43.30 bitrate=  21.5kbits/s    
frame=  438 fps=4.0 q=9.0 size=     114kB time=00:00:43.40 bitrate=  21.5kbits/s    
frame=  440 fps=4.0 q=9.0 size=     114kB time=00:00:43.60 bitrate=  21.4kbits/s    
frame=  442 fps=4.0 q=9.0 size=     114kB time=00:00:43.80 bitrate=  21.3kbits/s    
frame=  444 fps=3.9 q=9.0 size=     114kB time=00:00:44.00 bitrate=  21.2kbits/s    
frame=  445 fps=3.9 q=9.0 size=     116kB time=00:00:44.10 bitrate=  21.5kbits/s    
frame=  447 fps=3.9 q=9.0 size=     116kB time=00:00:44.30 bitrate=  21.4kbits/s    
frame=  448 fps=3.9 q=9.0 size=     116kB time=00:00:44.40 bitrate=  21.4kbits/s    
frame=  449 fps=3.9 q=9.0 size=     116kB time=00:00:44.50 bitrate=  21.4kbits/s    
frame=  450 fps=3.9 q=9.0 size=     116kB time=00:00:44.60 bitrate=  21.3kbits/s    
frame=  451 fps=3.8 q=9.0 size=     116kB time=00:00:44.70 bitrate=  21.3kbits/s    
frame=  452 fps=3.8 q=9.0 size=     116kB time=00:00:44.80 bitrate=  21.2kbits/s    
frame=  453 fps=3.8 q=9.0 size=     116kB time=00:00:44.90 bitrate=  21.2kbits/s    
frame=  454 fps=3.7 q=9.0 size=     116kB time=00:00:45.00 bitrate=  21.2kbits/s    
frame=  455 fps=3.7 q=9.0 size=     117kB time=00:00:45.10 bitrate=  21.2kbits/s    
frame=  456 fps=3.7 q=9.0 size=     117kB time=00:00:45.20 bitrate=  21.1kbits/s    
frame=  457 fps=3.7 q=9.0 size=     117kB time=00:00:45.30 bitrate=  21.1kbits/s    
frame=  458 fps=3.7 q=9.0 size=     117kB time=00:00:45.40 bitrate=  21.1kbits/s    
frame=  459 fps=3.6 q=9.0 size=     117kB time=00:00:45.50 bitrate=  21.1kbits/s    
frame=  460 fps=3.6 q=9.0 size=     117kB time=00:00:45.60 bitrate=  21.1kbits/s    
frame=  461 fps=3.6 q=9.0 size=     117kB time=00:00:45.70 bitrate=  21.0kbits/s    
frame=  462 fps=3.6 q=9.0 size=     119kB time=00:00:45.80 bitrate=  21.3kbits/s    
frame=  463 fps=3.6 q=9.0 size=     119kB time=00:00:45.90 bitrate=  21.2kbits/s    
frame=  464 fps=3.5 q=9.0 size=     119kB time=00:00:46.00 bitrate=  21.2kbits/s    
frame=  465 fps=3.5 q=9.0 size=     119kB time=00:00:46.10 bitrate=  21.2kbits/s    
frame=  466 fps=3.4 q=9.0 size=     119kB time=00:00:46.20 bitrate=  21.2kbits/s    
frame=  467 fps=3.4 q=9.0 size=     119kB time=00:00:46.30 bitrate=  21.1kbits/s    
frame=  468 fps=3.3 q=9.0 size=     120kB time=00:00:46.40 bitrate=  21.1kbits/s    
frame=  469 fps=3.3 q=9.0 size=     120kB time=00:00:46.50 bitrate=  21.1kbits/s    
frame=  470 fps=3.3 q=9.0 size=     120kB time=00:00:46.60 bitrate=  21.1kbits/s    
frame=  471 fps=3.2 q=9.0 size=     120kB time=00:00:46.70 bitrate=  21.0kbits/s    
frame=  472 fps=3.2 q=9.0 size=     122kB time=00:00:46.80 bitrate=  21.3kbits/s    
frame=  473 fps=3.2 q=9.0 size=     122kB time=00:00:46.90 bitrate=  21.2kbits/s    
frame=  474 fps=3.1 q=9.0 size=     122kB time=00:00:47.00 bitrate=  21.2kbits/s    
frame=  475 fps=3.1 q=9.0 size=     122kB time=00:00:47.10 bitrate=  21.2kbits/s    
frame=  476 fps=3.1 q=9.0 size=     122kB time=00:00:47.20 bitrate=  21.2kbits/s    
frame=  477 fps=3.1 q=9.0 size=     122kB time=00:00:47.30 bitrate=  21.1kbits/s    
frame=  478 fps=3.0 q=9.0 size=     122kB time=00:00:47.40 bitrate=  21.1kbits/s    
frame=  479 fps=3.0 q=9.0 size=     122kB time=00:00:47.50 bitrate=  21.1kbits/s    
frame=  480 fps=3.0 q=9.0 size=     122kB time=00:00:47.60 bitrate=  21.1kbits/s    
frame=  481 fps=3.0 q=9.0 size=     123kB time=00:00:47.70 bitrate=  21.1kbits/s    
frame=  482 fps=2.9 q=9.0 size=     123kB time=00:00:47.80 bitrate=  21.0kbits/s    
frame=  483 fps=2.9 q=9.0 size=     123kB time=00:00:47.90 bitrate=  21.0kbits/s    
frame=  484 fps=2.9 q=9.0 size=     123kB time=00:00:48.00 bitrate=  21.0kbits/s    
frame=  485 fps=2.9 q=9.0 size=     123kB time=00:00:48.10 bitrate=  21.0kbits/s    
frame=  486 fps=2.9 q=9.0 size=     123kB time=00:00:48.20 bitrate=  20.9kbits/s    
frame=  487 fps=2.9 q=9.0 size=     123kB time=00:00:48.30 bitrate=  20.9kbits/s    
frame=  488 fps=2.8 q=9.0 size=     123kB time=00:00:48.40 bitrate=  20.9kbits/s    
frame=  490 fps=2.8 q=9.0 size=     124kB time=00:00:48.60 bitrate=  20.8kbits/s    
frame=  491 fps=2.8 q=9.0 size=     124kB time=00:00:48.70 bitrate=  20.8kbits/s    
frame=  492 fps=2.8 q=9.0 size=     124kB time=00:00:48.80 bitrate=  20.8kbits/s    
frame=  493 fps=2.8 q=9.0 size=     124kB time=00:00:48.90 bitrate=  20.8kbits/s    
frame=  494 fps=2.8 q=9.0 size=     124kB time=00:00:49.00 bitrate=  20.7kbits/s    
frame=  495 fps=2.8 q=9.0 size=     124kB time=00:00:49.10 bitrate=  20.7kbits/s    
frame=  496 fps=2.7 q=9.0 size=     124kB time=00:00:49.20 bitrate=  20.7kbits/s    
frame=  497 fps=2.7 q=9.0 size=     124kB time=00:00:49.30 bitrate=  20.7kbits/s    
frame=  498 fps=2.7 q=9.0 size=     125kB time=00:00:49.40 bitrate=  20.6kbits/s    
frame=  499 fps=2.7 q=9.0 size=     125kB time=00:00:49.50 bitrate=  20.6kbits/s    
frame=  500 fps=2.7 q=9.0 size=     125kB time=00:00:49.60 bitrate=  20.6kbits/s    
frame=  501 fps=2.7 q=9.0 size=     125kB time=00:00:49.70 bitrate=  20.6kbits/s    
frame=  502 fps=2.7 q=9.0 size=     125kB time=00:00:49.80 bitrate=  20.6kbits/s    
frame=  503 fps=2.7 q=6.0 size=     125kB time=00:00:49.90 bitrate=  20.5kbits/s    
frame=  504 fps=2.6 q=15.0 size=     125kB time=00:00:50.00 bitrate=  20.5kbits/s    
frame=  505 fps=2.6 q=13.0 size=     166kB time=00:00:50.10 bitrate=  27.1kbits/s    
frame=  506 fps=2.6 q=12.0 size=     166kB time=00:00:50.20 bitrate=  27.1kbits/s    
frame=  507 fps=2.6 q=11.0 size=     166kB time=00:00:50.30 bitrate=  27.1kbits/s    
frame=  508 fps=2.6 q=10.0 size=     166kB time=00:00:50.40 bitrate=  27.0kbits/s    
frame=  509 fps=2.6 q=10.0 size=     168kB time=00:00:50.50 bitrate=  27.2kbits/s    
frame=  510 fps=2.6 q=9.0 size=     168kB time=00:00:50.60 bitrate=  27.2kbits/s    
frame=  511 fps=2.5 q=9.0 size=     168kB time=00:00:50.70 bitrate=  27.1kbits/s    
frame=  512 fps=2.5 q=9.0 size=     168kB time=00:00:50.80 bitrate=  27.1kbits/s    
frame=  513 fps=2.5 q=9.0 size=     168kB time=00:00:50.90 bitrate=  27.1kbits/s    
frame=  514 fps=2.5 q=9.0 size=     168kB time=00:00:51.00 bitrate=  27.0kbits/s    
frame=  515 fps=2.4 q=9.0 size=     169kB time=00:00:51.10 bitrate=  27.1kbits/s    
frame=  516 fps=2.4 q=9.0 size=     169kB time=00:00:51.20 bitrate=  27.0kbits/s    
frame=  517 fps=2.4 q=9.0 size=     169kB time=00:00:51.30 bitrate=  27.0kbits/s    
frame=  518 fps=2.4 q=9.0 size=     169kB time=00:00:51.40 bitrate=  27.0kbits/s    
frame=  519 fps=2.4 q=9.0 size=     169kB time=00:00:51.50 bitrate=  26.9kbits/s    
frame=  520 fps=2.3 q=9.0 size=     171kB time=00:00:51.60 bitrate=  27.1kbits/s    
frame=  521 fps=2.3 q=9.0 size=     171kB time=00:00:51.70 bitrate=  27.1kbits/s    
frame=  522 fps=2.3 q=9.0 size=     171kB time=00:00:51.80 bitrate=  27.1kbits/s    
frame=  523 fps=2.3 q=9.0 size=     171kB time=00:00:51.90 bitrate=  27.0kbits/s    
frame=  524 fps=2.2 q=9.0 size=     171kB time=00:00:52.00 bitrate=  27.0kbits/s    
frame=  525 fps=2.2 q=9.0 size=     172kB time=00:00:52.10 bitrate=  27.0kbits/s    
frame=  526 fps=2.2 q=9.0 size=     172kB time=00:00:52.20 bitrate=  26.9kbits/s    
frame=  527 fps=2.2 q=9.0 size=     172kB time=00:00:52.30 bitrate=  26.9kbits/s    
frame=  528 fps=2.2 q=9.0 size=     172kB time=00:00:52.40 bitrate=  26.9kbits/s    
frame=  529 fps=2.2 q=9.0 size=     172kB time=00:00:52.50 bitrate=  26.8kbits/s    
frame=  530 fps=2.2 q=9.0 size=     172kB time=00:00:52.60 bitrate=  26.8kbits/s    
frame=  531 fps=2.1 q=9.0 size=     172kB time=00:00:52.70 bitrate=  26.8kbits/s    
frame=  532 fps=2.1 q=9.0 size=     172kB time=00:00:52.80 bitrate=  26.8kbits/s    
frame=  533 fps=2.1 q=9.0 size=     173kB time=00:00:52.90 bitrate=  26.7kbits/s    
frame=  534 fps=2.1 q=9.0 size=     173kB time=00:00:53.00 bitrate=  26.7kbits/s    
frame=  535 fps=2.1 q=9.0 size=     173kB time=00:00:53.10 bitrate=  26.7kbits/s    
frame=  536 fps=2.1 q=9.0 size=     173kB time=00:00:53.20 bitrate=  26.6kbits/s    
frame=  537 fps=2.0 q=9.0 size=     173kB time=00:00:53.30 bitrate=  26.6kbits/s    
frame=  538 fps=2.0 q=9.0 size=     173kB time=00:00:53.40 bitrate=  26.6kbits/s    
frame=  539 fps=2.0 q=9.0 size=     173kB time=00:00:53.50 bitrate=  26.5kbits/s    
frame=  540 fps=2.0 q=9.0 size=     173kB time=00:00:53.60 bitrate=  26.5kbits/s    
frame=  541 fps=2.0 q=9.0 size=     173kB time=00:00:53.70 bitrate=  26.5kbits/s    
frame=  542 fps=2.0 q=9.0 size=     175kB time=00:00:53.80 bitrate=  26.7kbits/s    
frame=  543 fps=2.0 q=9.0 size=     175kB time=00:00:53.90 bitrate=  26.6kbits/s    
frame=  544 fps=2.0 q=9.0 size=     175kB time=00:00:54.00 bitrate=  26.6kbits/s    
frame=  545 fps=2.0 q=9.0 size=     175kB time=00:00:54.10 bitrate=  26.6kbits/s    
frame=  546 fps=2.0 q=9.0 size=     176kB time=00:00:54.20 bitrate=  26.5kbits/s    
frame=  547 fps=2.0 q=9.0 size=     176kB time=00:00:54.30 bitrate=  26.5kbits/s    
frame=  548 fps=2.0 q=9.0 size=     176kB time=00:00:54.40 bitrate=  26.5kbits/s    
frame=  549 fps=2.0 q=9.0 size=     176kB time=00:00:54.50 bitrate=  26.5kbits/s    
frame=  550 fps=2.0 q=9.0 size=     176kB time=00:00:54.60 bitrate=  26.4kbits/s    
frame=  551 fps=2.0 q=9.0 size=     176kB time=00:00:54.70 bitrate=  26.4kbits/s    
frame=  552 fps=1.9 q=9.0 size=     178kB time=00:00:54.80 bitrate=  26.6kbits/s    
frame=  553 fps=1.9 q=9.0 size=     178kB time=00:00:54.90 bitrate=  26.5kbits/s    
frame=  554 fps=1.9 q=9.0 size=     179kB time=00:00:55.00 bitrate=  26.7kbits/s    
frame=  555 fps=1.9 q=9.0 size=     180kB time=00:00:55.10 bitrate=  26.7kbits/s    
frame=  556 fps=1.9 q=9.0 size=     180kB time=00:00:55.20 bitrate=  26.7kbits/s    
frame=  557 fps=1.9 q=9.0 size=     180kB time=00:00:55.30 bitrate=  26.6kbits/s    
frame=  558 fps=1.9 q=9.0 size=     180kB time=00:00:55.40 bitrate=  26.6kbits/s    
frame=  559 fps=1.9 q=9.0 size=     180kB time=00:00:55.50 bitrate=  26.6kbits/s    
frame=  560 fps=1.8 q=9.0 size=     180kB time=00:00:55.60 bitrate=  26.6kbits/s    
frame=  561 fps=1.8 q=9.0 size=     180kB time=00:00:55.70 bitrate=  26.5kbits/s    
frame=  562 fps=1.8 q=9.0 size=     182kB time=00:00:55.80 bitrate=  26.7kbits/s    
frame=  563 fps=1.8 q=9.0 size=     182kB time=00:00:55.90 bitrate=  26.7kbits/s    
frame=  564 fps=1.8 q=9.0 size=     182kB time=00:00:56.00 bitrate=  26.6kbits/s    
frame=  565 fps=1.8 q=9.0 size=     184kB time=00:00:56.10 bitrate=  26.8kbits/s    
frame=  566 fps=1.8 q=9.0 size=     184kB time=00:00:56.20 bitrate=  26.8kbits/s    
frame=  567 fps=1.8 q=9.0 size=     184kB time=00:00:56.30 bitrate=  26.8kbits/s    
frame=  568 fps=1.8 q=9.0 size=     184kB time=00:00:56.40 bitrate=  26.8kbits/s    
frame=  570 fps=1.8 q=9.0 size=     184kB time=00:00:56.60 bitrate=  26.7kbits/s    
frame=  572 fps=1.8 q=9.0 size=     185kB time=00:00:56.80 bitrate=  26.6kbits/s    
frame=  573 fps=1.8 q=9.0 size=     185kB time=00:00:56.90 bitrate=  26.6kbits/s    
frame=  574 fps=1.8 q=9.0 size=     185kB time=00:00:57.00 bitrate=  26.6kbits/s    
frame=  576 fps=1.8 q=9.0 size=     185kB time=00:00:57.20 bitrate=  26.5kbits/s    
frame=  578 fps=1.8 q=9.0 size=     185kB time=00:00:57.40 bitrate=  26.4kbits/s    
frame=  579 fps=1.8 q=9.0 size=     185kB time=00:00:57.50 bitrate=  26.4kbits/s    
frame=  581 fps=1.8 q=9.0 size=     185kB time=00:00:57.70 bitrate=  26.3kbits/s    
frame=  583 fps=1.8 q=9.0 size=     185kB time=00:00:57.90 bitrate=  26.2kbits/s    
frame=  585 fps=1.8 q=9.0 size=     186kB time=00:00:58.10 bitrate=  26.2kbits/s    
frame=  588 fps=1.8 q=9.0 size=     186kB time=00:00:58.40 bitrate=  26.1kbits/s    
frame=  591 fps=1.8 q=9.0 size=     186kB time=00:00:58.70 bitrate=  25.9kbits/s    
frame=  594 fps=1.8 q=9.0 size=     186kB time=00:00:59.00 bitrate=  25.8kbits/s    
frame=  597 fps=1.8 q=9.0 size=     186kB time=00:00:59.30 bitrate=  25.7kbits/s    
frame=  601 fps=1.8 q=9.0 size=     186kB time=00:00:59.70 bitrate=  25.6kbits/s    
frame=  602 fps=1.8 q=-1.0 Lsize=     186kB time=00:01:00.20 bitrate=  25.4kbits/s    
video:182kB audio:0kB subtitle:0kB other streams:0kB global headers:0kB muxing overhead: 2.479658%
[libx264 @ 0xea2320] frame I:3     Avg QP:10.67  size: 36096
[libx264 @ 0xea2320] frame P:599   Avg QP: 9.09  size:   129
[libx264 @ 0xea2320] mb I  I16..4: 100.0%  0.0%  0.0%
[libx264 @ 0xea2320] mb P  I16..4:  0.1%  0.0%  0.0%  P16..4:  0.1%  0.0%  0.0%  0.0%  0.0%    skip:99.8%
[libx264 @ 0xea2320] coded y,uvDC,uvAC intra: 7.5% 5.1% 5.0% inter: 0.0% 0.0% 0.0%
[libx264 @ 0xea2320] i16 v,h,dc,p: 83% 16%  2%  0%
[libx264 @ 0xea2320] i8c dc,h,v,p: 88% 11%  1%  0%
[libx264 @ 0xea2320] kb/s:24.68
--40002LOG 12:02:10:692228700 Trapped SIGTERM or SIGINT so shutting down ffmpeg gracefully...
Exiting normally, received signal 2.
--40002LOG 12:02:11:246755100 Will kill VID_TOOL_PID=952 ...
--40002LOG 12:02:13:624970800 Tried to kill -SIGTERM VID_TOOL_PID=952
--40002LOG 12:02:14:210510400 Waiting up to 6s for VID_TOOL_PID=952 to end with SIGTERM...
--40002LOG 12:02:15:799613200 wait_pid successfully managed to SIGTERM:VID_TOOL_PID=952 within less than 6s
--40002LOG 12:02:15:961345800 Will try to fix the videos...
--40002LOG 12:02:32:694361600 Fixing perms for /home/seluser/videos/vid_chrome_or_firefox_40002.mkv*
--40002LOG 12:02:49:969605700 Changing video encoding from mkv to mp4...
